<!--?xml version="1.0" encoding="utf-8"?-->
<!-- Generator: Adobe Illustrator 18.1.1, SVG Export Plug-In . SVG Version: 6.00 Build 0)  -->

<svg version="1.1" id="_x31_0" xmlns="http://www.w3.org/2000/svg" xmlns:xlink="http://www.w3.org/1999/xlink" x="0px" y="0px" viewBox="0 0 512 512" style="enable-background:new 0 0 512 512;" xml:space="preserve">
<style type="text/css">
	.st0{fill:#374149;}
</style>
<g>
	<path class="st0" d="M126.57,174.913c0-2.703,1.316-5.226,3.523-6.789c23.734-16.778,58.657-36.348,71.809-39.778
		c3.367-0.867,6.68-1.527,10.058-2.011c0.035-0.004,0.07-0.012,0.106-0.012l0.902,8.461h30.449l2.805-25.922
		c0.164-1.547-0.378-3.086-1.476-4.184c-0.734-0.734-1.661-1.226-2.684-1.414c-3.222-0.594-10.863-1.848-17.824-1.848
		c-9.226,0-18.762,1.262-28.336,3.754c-12.95,3.339-44.824,20.363-66.539,34.336c-1.207,0.777-2.793-0.098-2.793-1.532v-5.992
		v-0.019l0,0v-0.16H89.969v59.602h36.602V174.913z"></path>
	<path class="st0" d="M126.57,102.307c0-10.808,8.477-19.71,19.27-20.238l36.621-1.794c3.086-0.152,5.508-2.699,5.508-5.789
		c0-3.309-2.77-5.946-6.074-5.785l-63.41,3.105c-15.968,0.782-28.515,13.958-28.515,29.946v4.653v8.398h36.602V102.307z"></path>
	<path class="st0" d="M486.32,205.304H25.762C11.519,205.304,0,216.823,0,230.983c0,12.321,8.641,22.562,20.16,25.122l16.321,82.558
		c7.199,36.637,36.789,64.148,72.859,69.278v16.363c0,10.496,8.508,19,19,19c10.492,0,19-8.504,19-19v-15.398h217.367v15.398
		c0,10.496,8.504,19,19,19l0,0c10.492,0,19-8.504,19-19v-16.36h0.011c36-5.121,65.602-32.64,72.883-69.281l16.32-82.558
		C503.359,253.546,512,243.304,512,230.983C512,216.823,500.481,205.304,486.32,205.304z M136.836,328.222
		c0.031,2.047-0.137,4.047-0.43,5.996c-0.047,0.301-0.094,0.598-0.149,0.898c-1.469,8.242-5.82,15.297-12.816,19.23
		c-14.242,8-33.922,0.238-43.84-17.523c-10-17.68-6.562-38.477,7.68-46.558c14.238-8,33.839-0.16,43.839,17.519
		c3.73,6.598,5.582,13.641,5.707,20.293C136.832,328.124,136.836,328.175,136.836,328.222z"></path>
</g>
</svg>
