<!--?xml version="1.0" encoding="utf-8"?-->
<!-- Generator: Adobe Illustrator 18.1.1, SVG Export Plug-In . SVG Version: 6.00 Build 0)  -->

<svg version="1.1" id="_x32_" xmlns="http://www.w3.org/2000/svg" xmlns:xlink="http://www.w3.org/1999/xlink" x="0px" y="0px" viewBox="0 0 512 512" style="width: 256px; height: 256px; opacity: 1;" xml:space="preserve">
<style type="text/css">
	.st0{fill:#4B4B4B;}
</style>
<g>
	<polygon class="st0" points="64.541,255.996 64.541,84.978 0,84.978 0,427.022 64.541,427.022 64.541,310.853 458.905,310.853 
		458.905,423.794 512,423.794 512,310.853 512,255.996 458.905,255.996 	"></polygon>
	<path class="st0" d="M113.489,234.481h29.02c15.151,0,27.44-12.281,27.44-27.44v-66.659c0-15.159-12.288-27.44-27.44-27.44h-29.02
		c-15.159,0-27.44,12.281-27.44,27.44v66.659C86.049,222.2,98.33,234.481,113.489,234.481z"></path>
	<rect x="189.307" y="150.581" class="st0" width="322.693" height="83.9"></rect>
</g>
</svg>
