<!--?xml version="1.0" encoding="utf-8"?-->
<!-- Generator: Adobe Illustrator 19.1.1, SVG Export Plug-In . SVG Version: 6.00 Build 0)  -->
<svg version="1.1" id="_x31_0" xmlns="http://www.w3.org/2000/svg" xmlns:xlink="http://www.w3.org/1999/xlink" x="0px" y="0px" viewBox="0 0 512 512" style="enable-background:new 0 0 512 512;" xml:space="preserve">
<style type="text/css">
	.st0{fill:#374149;}
</style>
<g>
	<path class="st0" d="M511.375,313.867l-27.406-70.031H28.031L0.625,313.867c-2.301,5.879,2.035,12.234,8.348,12.234h494.054
		C509.34,326.101,513.676,319.746,511.375,313.867z"></path>
	<polygon class="st0" points="26.641,218.773 485.359,218.773 485.359,163.207 485.363,162.867 485.359,162.867 485.359,162.707 
		26.641,162.707 26.641,218.273 26.637,218.613 26.641,218.613 	"></polygon>
	<polygon class="st0" points="26.641,137.484 26.641,137.644 485.359,137.644 485.359,82.078 485.363,81.738 485.359,81.738 
		485.359,81.578 26.641,81.578 26.641,137.144 26.637,137.484 	"></polygon>
	<path class="st0" d="M58.59,350.101v75.371c0,2.734,2.219,4.95,4.95,4.95h28.457c2.734,0,4.95-2.215,4.95-4.95v-75.371H58.59z"></path>
	<path class="st0" d="M415.054,350.101v75.371c0,2.734,2.215,4.95,4.95,4.95h28.457c2.73,0,4.95-2.215,4.95-4.95v-75.371H415.054z"></path>
</g>
</svg>
