<!--?xml version="1.0" encoding="utf-8"?-->
<!-- Generator: Adobe Illustrator 18.1.1, SVG Export Plug-In . SVG Version: 6.00 Build 0)  -->

<svg version="1.1" id="_x31_0" xmlns="http://www.w3.org/2000/svg" xmlns:xlink="http://www.w3.org/1999/xlink" x="0px" y="0px" viewBox="0 0 512 512" style="enable-background:new 0 0 512 512;" xml:space="preserve">
<style type="text/css">
	.st0{fill:#374149;}
</style>
<g>
	<path class="st0" d="M432.98,168.676c-1.394-29.398-10-56.938-24.066-80.898c-2.098-3.59-4.434-7.008-6.77-10.43
		c-0.734-1.066-1.363-2.211-2.121-3.262c-11.406-15.93-25.496-29.714-41.438-41.062C329.598,12.336,294.258,0,256.008,0
		c-38.965,0-74.918,12.793-104.203,34.195c-1.894,1.379-3.867,2.656-5.703,4.11c-0.312,0.246-0.594,0.535-0.906,0.785
		c-12.566,10.086-23.762,21.825-33.176,34.961c-2.488,3.469-4.746,7.102-6.985,10.746c-0.617,1.012-1.332,1.95-1.93,2.973
		c-14.062,23.961-22.671,51.5-24.07,80.894c-15.07,11.496-24.05,25.508-24.05,42.199v1.871l0.156,0.859
		c0.23,3.508,0.856,6.942,1.794,10.215l39.14,221.523C98.492,491.102,180.129,512,256,512c75.87,0,157.507-20.898,159.926-66.668
		l39.141-221.523c1.015-3.274,1.562-6.707,1.797-10.215l0.152-0.859v-1.871C457.016,194.18,448.039,180.172,432.98,168.676z
		 M415.144,212.66c-2.106,3.742-9.98,11.93-31.969,20.504c-2.262,0.859-4.836,0.938-7.172,0.156
		c-28.851-9.511-69.945-16.453-120.003-16.453c-50.059,0-91.074,6.942-120.004,16.453c-2.336,0.782-4.91,0.703-7.172-0.156
		c-21.989-8.574-29.863-16.762-31.89-20.504l-0.469-2.574c0-0.078,0.078-0.156,0.078-0.234c0.078-0.078,0.078-0.234,0.157-0.312
		c0.078-0.156,0.156-0.313,0.234-0.469c0.078-0.156,0.156-0.313,0.312-0.469c0.078-0.152,0.234-0.386,0.39-0.543
		c0.078-0.156,0.157-0.312,0.313-0.469c0.152-0.234,0.386-0.469,0.621-0.781c0.078-0.157,0.234-0.234,0.313-0.391
		c0.39-0.465,0.778-0.855,1.246-1.324l0.312-0.312c0.391-0.391,0.782-0.778,1.25-1.168c0.156-0.157,0.465-0.391,0.621-0.547
		c0.39-0.313,0.782-0.625,1.25-1.016c0.23-0.156,0.542-0.386,0.855-0.621c0.39-0.313,0.859-0.703,1.328-1.015
		c0.309-0.231,0.699-0.465,1.012-0.699c0.546-0.313,1.015-0.703,1.558-1.016c0.39-0.234,0.782-0.547,1.25-0.782
		c0.542-0.308,1.09-0.699,1.714-1.011c0.469-0.313,0.934-0.547,1.402-0.859c0.625-0.309,1.324-0.699,2.027-1.09
		c0.469-0.234,1.016-0.546,1.558-0.781c0.703-0.391,1.563-0.778,2.34-1.168c0.547-0.234,1.09-0.469,1.637-0.782
		c0.859-0.386,1.797-0.777,2.73-1.168c0.625-0.312,1.168-0.546,1.793-0.781c1.016-0.465,2.184-0.934,3.352-1.325
		c0.546-0.234,1.015-0.469,1.641-0.702c1.714-0.622,3.507-1.325,5.457-1.95c3.977-1.402,8.187-2.726,12.477-3.898
		c30.254-8.574,68.148-13.254,108.305-13.254c45.926,0,88.89,6.082,120.781,17.152c1.95,0.625,3.742,1.328,5.535,1.95
		c0.547,0.234,1.094,0.468,1.641,0.702c1.09,0.391,2.258,0.86,3.274,1.325c0.625,0.234,1.25,0.469,1.793,0.781
		c0.938,0.391,1.871,0.782,2.73,1.168c0.547,0.313,1.09,0.547,1.714,0.782c0.782,0.39,1.559,0.777,2.262,1.168
		c0.546,0.312,1.09,0.546,1.558,0.781c0.703,0.391,1.402,0.782,2.027,1.09c0.469,0.312,0.938,0.546,1.402,0.859
		c0.625,0.312,1.172,0.703,1.715,1.011c0.468,0.234,0.859,0.547,1.25,0.782c0.547,0.313,1.09,0.703,1.558,1.016
		c0.313,0.234,0.703,0.468,1.012,0.699c0.469,0.312,0.938,0.702,1.328,1.015c0.313,0.234,0.625,0.465,0.938,0.621
		c0.386,0.391,0.778,0.703,1.168,1.016c0.234,0.156,0.469,0.39,0.621,0.547c0.469,0.39,0.859,0.777,1.25,1.168
		c0.078,0.078,0.234,0.234,0.312,0.312c0.469,0.469,0.856,0.859,1.246,1.324c0.156,0.157,0.234,0.234,0.39,0.391
		c0.157,0.312,0.391,0.546,0.547,0.781c0.156,0.157,0.234,0.313,0.386,0.469c0.078,0.157,0.234,0.391,0.391,0.543
		c0.078,0.156,0.156,0.313,0.234,0.469c0.078,0.156,0.156,0.313,0.234,0.469c0.078,0.078,0.078,0.234,0.156,0.312
		c0.078,0.078,0.078,0.157,0.078,0.234L415.144,212.66z M351.441,269.422v94.458v0.125H248.203V293.75v-24.329h103.082H351.441z
		 M110.188,287.746c-1.481-8.188,6.394-14.734,14.27-12.164c28.226,9.359,62.378,15.05,97.234,17.078v84.68
		c0,7.25,6.004,13.254,13.336,13.254h129.746c7.328,0,13.254-6.004,13.254-13.254v-98.793c0.312-0.078,0.703-0.234,1.015-0.313
		c2.887-0.782,5.692-1.715,8.5-2.652c7.875-2.57,15.75,3.976,14.348,12.164l-27.215,153.609v1.172
		c-4.289,8.344-44.602,28.223-118.675,28.223c-73.997,0-114.309-19.879-118.676-28.223v-1.172L110.188,287.746z M415.445,157.742
		C376.2,137.484,314.773,127.898,256,127.898c-51.966,0-105.977,7.508-144.926,23.246c-5.195,2.058-10.07,4.242-14.59,6.535
		c9.676-79.497,77.457-141.321,159.523-141.321c71.797,0,132.664,47.324,153.25,112.402
		C412.164,138.062,414.254,147.75,415.445,157.742z"></path>
	<polygon class="st0" points="340.797,352.465 340.797,336.375 340.836,332.481 340.797,332.488 340.797,332.324 299.176,342.562 
		258.926,352.305 259.574,352.305 258.926,352.465 	"></polygon>
</g>
</svg>
