<!--?xml version="1.0" encoding="utf-8"?-->
<!-- Generator: Adobe Illustrator 18.1.1, SVG Export Plug-In . SVG Version: 6.00 Build 0)  -->

<svg version="1.1" id="_x31_0" xmlns="http://www.w3.org/2000/svg" xmlns:xlink="http://www.w3.org/1999/xlink" x="0px" y="0px" viewBox="0 0 512 512" style="enable-background:new 0 0 512 512;" xml:space="preserve">
<style type="text/css">
	.st0{fill:#374149;}
</style>
<g>
	<path class="st0" d="M255.953,434.914c-5.106,0.024-9.305,4-9.622,9.086l-3.488,57.754c-0.34,5.57,4.11,10.274,9.695,10.246
		l7.481-0.027c5.594-0.028,9.992-4.766,9.613-10.34l-3.992-57.715C265.289,438.832,261.051,434.89,255.953,434.914z"></path>
	<path class="st0" d="M363.52,394.867c-3.84-3.344-9.626-3.129-13.211,0.488c-3.594,3.622-3.754,9.406-0.379,13.215l38.387,43.301
		c3.703,4.183,10.168,4.367,14.102,0.398l5.273-5.313c3.926-3.965,3.696-10.438-0.519-14.106L363.52,394.867z"></path>
	<path class="st0" d="M148.035,395.824l-43.32,38.371c-4.184,3.711-4.367,10.172-0.39,14.106l5.308,5.27
		c3.973,3.93,10.434,3.695,14.106-0.52l38.004-43.644c3.351-3.84,3.141-9.626-0.484-13.219
		C157.64,392.606,151.852,392.446,148.035,395.824z"></path>
	<path class="st0" d="M106.652,320.32c47.266,4.66,97.308,7.211,149.234,7.211c0,0,0,0,0.113,0c0,0,0,0,0.11,0
		c51.82,0,101.973-2.551,149.238-7.211c6.77-0.668,9.766-8.878,5.106-13.871L295.5,182.621v-55.48
		c0-7.657-6.214-13.871-13.867-13.871h-51.266c-7.766,0-13.867,6.214-13.867,13.871v55.48L101.547,306.449
		C96.887,311.442,99.883,319.652,106.652,320.32z M230.148,272.386c-8.211,9.098-21.418,10.539-29.297,3.328
		c-7.875-7.214-7.653-20.418,0.668-29.515c8.21-8.988,21.414-10.43,29.293-3.218C238.691,250.191,238.468,263.394,230.148,272.386z"></path>
	<polygon class="st0" points="244.875,89.961 244.875,90.117 267.066,90.117 267.066,0 244.875,0 244.875,89.683 244.875,89.961 	
		"></polygon>
</g>
</svg>
