<!--?xml version="1.0" encoding="utf-8"?-->
<!-- Generator: Adobe Illustrator 18.1.1, SVG Export Plug-In . SVG Version: 6.00 Build 0)  -->

<svg version="1.1" id="_x31_0" xmlns="http://www.w3.org/2000/svg" xmlns:xlink="http://www.w3.org/1999/xlink" x="0px" y="0px" viewBox="0 0 512 512" style="width: 256px; height: 256px; opacity: 1;" xml:space="preserve">
<style type="text/css">
	.st0{fill:#374149;}
</style>
<g>
	<path class="st0" d="M375.822,130.499l-10.164-17.238h0.762c4.07,0,7.379-3.313,7.379-7.383V79.034
		c0-5.516-4.473-9.985-9.988-9.985H148.19c-5.516,0-9.989,4.469-9.989,9.985v26.77c0,4.113,3.34,7.457,7.45,7.457h0.789
		l-30.664,51.531v294.075c0,7.691,2.355,15.191,6.75,21.504l14.546,20.894c4.73,6.722,12.418,10.734,20.574,10.734h196.711
		c8.153,0,15.84-4.012,20.578-10.746l14.539-20.882c4.394-6.313,6.75-13.817,6.75-21.504V164.792L375.822,130.499z M351.206,172.534
		H225.166l-64.418-0.082l25.5-42.774l9.118-15.43h121.27l9.125,15.442l16.457,27.606L351.206,172.534z M158.354,457.305V200.921
		h195.294v256.384l-8.454,12.117H166.806L158.354,457.305z"></path>
	<path class="st0" d="M185.638,55.566c2.902,0,4.719-3.11,3.286-5.633c-2.09-3.676-2.79-8.227-1.402-12.918
		c1.594-5.394,6.152-9.722,11.633-11c10.805-2.519,20.41,5.512,20.41,15.883c0,2.918-0.774,5.668-2.133,8.05
		c-1.434,2.512,0.398,5.618,3.293,5.618h22.023c1.531-4.282,2.363-8.879,2.363-13.668c0-25.559-23.023-45.809-49.398-41.254
		c-15.254,2.633-28.078,14.047-32.59,28.855c-2.813,9.238-2.274,18.192,0.43,26.067H185.638z"></path>
</g>
</svg>
