<!--?xml version="1.0" encoding="utf-8"?-->
<!-- Generator: Adobe Illustrator 19.1.1, SVG Export Plug-In . SVG Version: 6.00 Build 0)  -->
<svg version="1.1" id="_x31_0" xmlns="http://www.w3.org/2000/svg" xmlns:xlink="http://www.w3.org/1999/xlink" x="0px" y="0px" viewBox="0 0 512 512" style="enable-background:new 0 0 512 512;" xml:space="preserve">
<style type="text/css">
	.st0{fill:#374149;}
</style>
<g>
	<path class="st0" d="M497.183,125.363L428.145,5.141C426.316,1.961,422.93,0,419.262,0H92.738c-3.668,0-7.059,1.961-8.883,5.145
		l-77.726,135.5v355.98c0,8.492,6.883,15.375,15.375,15.375h468.992c8.492,0,15.375-6.883,15.375-15.375v-355.98L497.183,125.363z
		 M194.183,47.805l15.039,0.031l-16.75,84.508h-86.348l-25.695-0.051l-12.539-0.106l48.394-84.402L194.183,47.805z M199.094,273.191
		h113.813c4.851,0,8.789-3.934,8.789-8.789V163.918h134.293v296.622v1.656H56.008V163.918h134.293v100.485
		C190.301,269.258,194.238,273.191,199.094,273.191z M444.015,132.344H319.602l-14.149-71.062l-2.652-13.497h92.914l32.266,56.278
		l10.79,18.922L444.015,132.344z"></path>
	<polygon class="st0" points="314.543,337.207 314.446,337.328 314.477,337.328 314.446,337.367 358.824,337.367 340.844,314.527 
		337.359,310.098 336.762,309.285 336.742,309.309 336.664,309.207 336.656,309.215 336.633,309.183 322.934,326.586 
		317.242,333.793 314.446,337.207 	"></polygon>
	<polygon class="st0" points="348.418,402.504 348.418,345.617 324.847,345.617 324.847,402.172 324.847,402.344 324.847,402.344 
		324.847,402.504 	"></polygon>
	<polygon class="st0" points="369.55,337.207 369.453,337.328 369.48,337.328 369.453,337.367 413.828,337.367 395.805,314.473 
		392.375,310.106 391.766,309.285 391.746,309.309 391.668,309.207 391.664,309.215 391.641,309.183 377.973,326.543 
		372.262,333.774 369.453,337.207 	"></polygon>
	<polygon class="st0" points="403.426,402.504 403.426,345.617 379.855,345.617 379.855,402.172 379.855,402.344 379.855,402.344 
		379.855,402.504 	"></polygon>
	<polygon class="st0" points="312.121,426.434 312.121,426.512 312.121,426.558 312.121,426.594 416.152,426.594 416.152,412.199 
		416.152,412.156 416.152,412.156 416.152,412.121 312.121,412.121 312.121,426.39 312.121,426.434 	"></polygon>
</g>
</svg>
