<!--?xml version="1.0" encoding="utf-8"?-->
<!-- Generator: Adobe Illustrator 19.1.1, SVG Export Plug-In . SVG Version: 6.00 Build 0)  -->
<svg version="1.1" id="_x31_0" xmlns="http://www.w3.org/2000/svg" xmlns:xlink="http://www.w3.org/1999/xlink" x="0px" y="0px" viewBox="0 0 512 512" style="width: 256px; height: 256px; opacity: 1;" xml:space="preserve">
<style type="text/css">
	.st0{fill:#374149;}
</style>
<g>
	<path class="st0" d="M452.106,319.93c-10.219-83.355-92.504-186.683-154.664-224.722l43.866-75.992
		c0.848-1.52,1.266-3.145,1.45-4.782c0.05-0.27,0.141-0.543,0.18-0.813l-0.055,0.012c0-0.058,0.024-0.114,0.024-0.168l-26.055,5.383
		L290.511,0L260.82,13.027L231.195,0l-26.34,18.848l-20.93-4.325l-4.965-1.066c0,0.016,0.008,0.027,0.008,0.039l-0.168-0.031
		c0.07,1.965,0.582,3.93,1.598,5.75l40.519,70.254l0.89,1.55C159,125.062,70.515,233.285,59.894,319.93
		C47.898,417.793,103.117,512,256,512C408.882,512,464.102,417.793,452.106,319.93z M390.058,367.473
		c-3.156,10.519-8.457,21.351-15.496,30.922c-1.821,2.371-3.558,4.742-5.614,6.879l-1.426,1.66c-0.871,0.95-1.027,1.11-1.582,1.66
		l-2.922,2.926c-4.434,4.274-8.699,7.672-13.285,10.758c-9.094,6.164-18.27,10.438-26.336,13.125
		c-8.066,2.77-14.946,4.035-19.848,4.664c-4.82,0.637-7.59,0.715-7.59,0.715h-0.082c-2.293,0-4.109-1.821-4.187-4.114
		c0-1.422,0.789-2.766,1.973-3.477c0,0,2.297-1.426,6.172-3.874c3.949-2.375,9.488-5.774,15.656-10.047
		c3.16-2.054,6.328-4.586,9.726-7.114c3.317-2.453,6.562-5.457,9.961-8.465c3.242-3.004,6.723-6.402,9.489-9.566
		c0.633-0.71,1.66-1.898,2.453-2.847c0.317-0.394,1.11-1.184,1.11-1.266l1.027-1.344c1.5-1.817,2.926-3.718,4.27-5.614
		c5.379-7.59,9.886-15.738,13.519-23.882c1.821-4.114,3.481-8.145,4.832-12.098c1.34-3.875,2.524-7.672,3.633-11.309
		c1.977-7.117,3.398-13.442,4.426-17.715c0.874-4.586,1.586-7.351,1.586-7.351c0.547-2.215,2.766-3.558,4.981-3.008
		c1.343,0.321,2.371,1.266,2.847,2.454l0.078,0.156c0,0,1.023,2.531,2.214,7.278c1.106,4.902,2.45,11.941,2.45,20.558
		C394.332,346.676,393.148,356.879,390.058,367.473z M233.613,199.094c13.305,10.211,11.031,33.129-5.011,51.207
		c-15.918,18.066-39.626,24.469-52.813,14.242c-13.297-10.102-11.035-33.129,5.004-51.207
		C196.71,195.274,220.418,188.867,233.613,199.094z"></path>
</g>
</svg>
