<!--?xml version="1.0" encoding="utf-8"?-->
<!-- Generator: Adobe Illustrator 18.1.1, SVG Export Plug-In . SVG Version: 6.00 Build 0)  -->

<svg version="1.1" id="_x31_0" xmlns="http://www.w3.org/2000/svg" xmlns:xlink="http://www.w3.org/1999/xlink" x="0px" y="0px" viewBox="0 0 512 512" style="enable-background:new 0 0 512 512;" xml:space="preserve">
<style type="text/css">
	.st0{fill:#374149;}
</style>
<g>
	<path class="st0" d="M495.241,158.466l-3.815-3.815c-6.636-6.639-17.322-6.639-23.958,0l-72.035,72.032
		c-0.432,0.436-0.916,0.782-1.405,1.118c-0.182,0.126-0.361,0.257-0.547,0.369c-1.073,0.63-2.236,1.029-3.435,1.222
		c-0.146,0.022-0.28,0.063-0.425,0.082c-3.491,0.402-7.176-1.021-9.449-4.24c-2.898-4.121-1.982-9.766,1.527-13.354l100.878-100.873
		c6.788-6.718,6.788-17.706,0-24.494l-3.282-3.361c-6.714-6.636-17.78-6.636-24.494,0L353.696,184.257
		c-3.894,3.894-10.223,4.199-14.191,0.537l-0.306-0.231c-1.908-1.907-2.902-4.501-2.977-7.172c0-2.671,1.069-5.186,2.977-7.094
		L450.527,58.965c6.714-6.714,6.714-17.627,0-24.341l-3.435-3.432c-6.714-6.718-17.702-6.718-24.341,0c0,0-3.969,3.738-10.451,9.687
		l0.074,0.157l-74.472,74.93l-26.558,26.554c-3.89,3.968-10.298,4.121-14.266,0.458l-0.153-0.231
		c-1.907-1.907-3.051-4.422-3.051-7.172c0-2.671,1.066-5.112,3.051-7.094l95.687-95.687c5.875-7.019,6.635-17.169,1.602-24.419
		c-0.689-0.838-1.449-1.527-2.138-2.288l-0.306-0.305c-0.991-0.991-2.06-1.755-3.051-2.445c-0.153-0.153-0.306-0.227-0.458-0.38
		c-1.144-0.533-2.288-1.222-3.584-1.68c0,0-0.078,0-0.153-0.074c-2.672-0.917-5.418-1.375-8.394-1.144
		c-4.732,0.38-9.158,2.824-12.59,6.181c0,0-102.785,102.859-113.466,113.542c-10.682,10.607-18.086,5.798-15.567-8.774
		l11.752-54.178c2.213-6.255,0.533-13.201-3.968-17.702c-1.83-1.833-3.968-3.208-6.256-3.971l-5.265-1.83
		c-4.199-1.528-8.853-1.297-12.898,0.686c-4.043,1.907-7.173,5.342-8.622,9.616l-89.122,207.09
		c-13.201,30.522-33.577,57.534-59.289,78.597l-5.369,4.415l-0.555,0.435l0.014,0.011l-0.119,0.097l135.136,135.062l16.558-20.146
		c13.506-16.558,29.606-30.98,47.613-42.653l31.67-20.678c11.293-7.25,21.744-15.719,31.207-25.258L495.241,182.35
		C501.805,175.788,501.805,165.106,495.241,158.466z M258.933,213.136c-3.212,6.45-9.028,12.161-16.718,15.607
		c-3.666,1.643-7.426,2.578-11.114,2.955c-0.321,0.033-0.645,0.082-0.966,0.108c-11.524,0.842-22.15-4.244-26.457-13.819
		c-2.884-6.382-2.377-13.57,0.767-20.042c0.038-0.074,0.075-0.149,0.112-0.223c3.201-6.442,9.017-12.154,16.748-15.6
		c3.647-1.651,7.388-2.598,11.054-2.989c0.358-0.037,0.715-0.089,1.073-0.119c11.506-0.857,22.106,4.226,26.405,13.79
		c2.888,6.416,2.362,13.626-0.794,20.105C259.011,212.987,258.97,213.058,258.933,213.136z"></path>
	<polygon class="st0" points="13.837,371.063 11.94,372.706 11.948,372.714 11.836,372.814 151.021,512 177.889,481.326 
		42.51,345.947 	"></polygon>
</g>
</svg>
