<!--?xml version="1.0" encoding="utf-8"?-->
<!-- Generator: Adobe Illustrator 24.1.1, SVG Export Plug-In . SVG Version: 6.00 Build 0)  -->
<svg version="1.1" id="_x31_0" xmlns="http://www.w3.org/2000/svg" xmlns:xlink="http://www.w3.org/1999/xlink" x="0px" y="0px" viewBox="0 0 512 512" style="width: 256px; height: 256px; opacity: 1;" xml:space="preserve">
<style type="text/css">
	.st0{fill:#374149;}
</style>
<g>
	<path class="st0" d="M78.113,367.834c2.492,21.45,9.785,39.863,20.965,54.625c8.324,11.122,18.714,20.176,30.32,27.406
		c17.442,10.754,37.614,17.559,59.126,21.754c21.508,4.129,44.355,5.71,67.508,5.71c20.476,0,40.832-1.214,60.214-4.437
		c29.043-4.86,56.086-13.977,77.536-30.868c10.691-8.445,19.93-18.898,26.797-31.293c6.926-12.457,11.422-26.797,13.305-42.898
		c1.945-16.59,3.527-34.637,4.922-52.801c52.442-5.23,71.035-16.954,72.918-45.274l0.121-1.942
		c1.883-20.965-13.488-42.718-35-49.582c-1.946-0.61-3.89-1.098-5.832-1.462c-5.348-0.969-14.523-2.004-22.606-2.797
		c-0.426,0.551-0.851,1.035-1.278,1.52c-0.91,1.035-1.882,2.07-2.855,3.038c-1.274,1.34-2.61,2.551-4.008,3.833
		c-2.129,1.882-4.375,3.702-6.687,5.402l-2.61,2.008l-0.183,0.184l-0.242,0.121c-0.852,0.606-1.457,1.094-2.066,1.52
		c-0.242,0.117-0.426,0.242-0.668,0.426c-0.062,0-0.184,0.062-0.246,0.121l-7.226,4.555l-0.305,0.183l-0.246,0.121l-5.954,3.344
		l-0.242,0.18l-0.304,0.121l-0.426,0.246l-5.894,2.855c-2.309,1.215-4.617,2.187-6.988,3.218l-2.43,1.035
		c-1.641,0.664-3.282,1.395-5.043,2.004l-3.219,1.215c-3.16,1.214-6.746,2.554-10.511,3.707l-12.821,3.828l-0.183,0.062
		l-0.121,0.058c-33.18,9.055-68.906,13.492-109.497,13.672c-40.59-0.121-76.321-4.617-109.375-13.61
		c-18.656-5.164-34.027-11-47.637-18.109c-2.25-1.215-4.5-2.367-6.625-3.645c-1.762-0.973-3.586-2.129-5.469-3.344l-0.122-0.121
		l-0.121-0.058l-2.614-1.825l-0.73-0.484l-4.374-3.102l-0.18-0.058l-0.121-0.122c-2.493-1.886-4.801-3.77-6.989-5.71
		c-1.398-1.219-2.734-2.555-4.011-3.833c-0.91-0.91-1.762-1.762-2.551-2.671c-0.547-0.61-1.094-1.215-1.582-1.887h-0.059
		c-8.023,0.793-17.195,1.828-22.606,2.797c-1.945,0.363-3.886,0.852-5.832,1.462c-21.449,6.863-36.882,28.617-35,49.582l0.18,1.942
		c1.886,28.32,20.418,40.043,72.859,45.274C74.53,333.198,76.171,351.245,78.113,367.834z M68.937,244.729
		c0.125,2.977,0.305,6.015,0.488,9.113c-6.926-0.546-16.832-1.335-20.355-1.398c-2.004,0-4.07-0.121-5.774,0
		c-2.492,0.184-4.496,0.852-4.801,3.282c-0.058,0.61,0,1.34,0.122,2.25c0.851,4.981,8.992,13.426,31.718,12.7
		c0.426,8.445,0.973,17.195,1.582,25.945c-55.539-6.015-52.563-18.531-53.657-30.382c-0.973-11.848,8.57-26.25,22.485-30.626
		c1.152-0.363,2.308-0.668,3.523-0.91c5.469-0.973,16.102-2.066,24.121-2.794C68.515,236.041,68.694,240.291,68.937,244.729z
		 M182.082,296.44c13.672,7.894,18.351,25.336,10.45,39.008c-7.899,13.613-25.336,18.289-38.95,10.449
		c-13.672-7.898-18.348-25.336-10.45-39.008C150.968,293.279,168.468,288.6,182.082,296.44z M440.145,296.619
		c0.606-8.75,1.09-17.5,1.578-25.945c22.727,0.726,30.868-7.719,31.719-12.7c0.121-0.91,0.184-1.64,0.058-2.25
		c-0.301-2.43-2.246-3.098-4.797-3.282c-1.703-0.121-3.707,0-5.711,0c-3.586,0.063-13.37,0.852-20.359,1.398
		c0.184-3.098,0.367-6.136,0.489-9.113c0.242-4.438,0.426-8.688,0.546-12.821c8.02,0.727,18.653,1.821,24.062,2.794
		c1.215,0.242,2.367,0.546,3.524,0.91c13.914,4.375,23.515,18.778,22.48,30.626C492.641,278.088,495.559,290.542,440.145,296.619z"></path>
	<path class="st0" d="M66.995,197.939c2.004,3.402,4.434,6.684,7.23,9.782c1.52,1.641,3.098,3.282,4.86,4.863
		c1.218,1.094,2.43,2.187,3.77,3.282c0.058,0,0.121,0.062,0.183,0.121c0.969,0.789,1.942,1.519,2.977,2.309l7.714,5.406
		c1.641,1.098,3.282,2.129,4.68,2.859c0,0,0.062,0,0.062,0.058c14.34,8.266,30.684,14.824,51.527,20.66
		c31.962,8.688,66.715,13.004,106.211,13.126c39.375-0.184,74.07-4.497,106.215-13.246l12.821-3.89
		c3.281-0.973,6.504-2.188,9.722-3.402l3.344-1.215c1.457-0.546,2.976-1.214,4.434-1.82l2.492-1.098
		c2.129-0.848,4.254-1.762,6.137-2.794l6.504-3.16l5.648-3.16l0.305-0.18l7.23-4.621c0.73-0.426,1.461-0.91,2.492-1.641l2.614-2.004
		c0.973-0.726,1.883-1.457,2.793-2.125c0.062-0.121,0.126-0.121,0.184-0.183c1.336-1.094,2.613-2.188,3.828-3.282
		c1.824-1.645,3.465-3.406,5.043-5.168c2.734-3.039,5.106-6.195,6.988-9.477c1.094-1.64,2.004-3.343,2.797-5.105
		c2.856-6.074,4.375-12.7,4.375-18.958c0.121-6.32-1.34-12.945-4.195-19.199c-2.309-5.168-5.527-9.906-9.844-14.645
		c-6.442-7.05-14.34-13.129-24.305-18.656l-1.946-1.031c-1.457-0.793-2.855-1.582-4.374-2.25l-6.379-3.038l-1.336-0.543
		c-1.582-0.672-3.222-1.398-4.863-2.008c-3.828-2.977-7.957-5.774-12.274-8.446c-2.918-1.824-5.953-3.527-9.113-5.226
		c-0.063,0-0.184-0.062-0.242-0.062c-8.203-4.371-17.078-8.199-26.618-11.543c-1.82-0.668-3.703-1.277-5.59-1.82h-0.058
		c-10.512-3.469-21.695-6.199-33.36-8.203c0.547-2.129,0.852-4.379,0.852-6.687c0-2.062-0.242-4.192-0.73-6.321
		c-4.133-17.679-24.973-29.527-51.77-29.527c-14.95,0-28.985,3.886-38.524,10.754c-9.054,6.5-14.039,15.434-14.039,25.094
		c0,2.25,0.305,4.5,0.852,6.687c-11.91,2.062-23.211,4.859-33.906,8.324c-11.301,3.645-21.813,8.082-31.414,13.063
		c-0.121,0.058-0.183,0.121-0.305,0.179h-0.062c-7.773,4.133-14.945,8.629-21.324,13.614h-0.062
		c-7.293,2.918-13.73,5.953-19.566,9.297c-9.902,5.531-17.805,11.668-24.184,18.714c-4.129,4.559-7.351,9.539-9.66,14.703
		c-2.797,6.199-4.195,12.883-4.012,19.141c0.063,6.321,1.641,12.883,4.618,19.082C65.171,194.901,66.022,196.42,66.995,197.939z
		 M215.867,94.338v18.168l8.019,3.649l2.734,1.21c3.218,1.462,6.746,2.676,10.449,3.59c0.063,0,0.063,0,0.063,0
		c1.277,0.359,2.492,0.606,3.766,0.847c5.106,1.031,10.453,1.582,15.859,1.582c5.41,0,10.758-0.551,15.859-1.52
		c1.157-0.246,2.309-0.488,3.465-0.793c3.828-0.969,7.473-2.187,10.879-3.707l2.43-1.094l8.262-3.766V94.033
		c15.434,2.25,29.958,5.836,43.02,10.454c24.305,8.445,43.691,20.539,55.66,33.965c1.156,1.278,2.25,2.613,3.282,3.886
		c2.55,3.282,4.679,6.626,6.32,10.031h0.058c2.008,3.95,3.406,7.958,4.133,12.031c0.122,0.242,0.122,0.543,0.184,0.79
		c0.426,2.492,0.668,4.98,0.668,7.473c0,2.55-0.242,5.102-0.668,7.594c0,0,0,0-0.062,0.062c0,0,0,0.058-0.059,0.121h0.059
		c-0.668,3.707-1.821,7.356-3.524,10.996c-0.972,0.79-2.003,1.582-3.16,2.371c-0.121,0.122-3.523,2.371-3.523,2.371
		c-12.457,7.898-30.199,15.07-51.469,20.418c-26.43,6.683-58.332,10.633-92.539,10.57c-34.274,0.062-66.172-3.887-92.606-10.57
		c-21.266-5.348-38.95-12.52-51.406-20.418c0,0-4.434-2.98-5.043-3.402c-0.547-0.426-1.152-0.91-1.699-1.398h-0.062
		c-1.641-3.582-2.793-7.23-3.465-10.938c0-0.062-0.059-0.062-0.059-0.121c-0.426-2.554-0.667-5.106-0.667-7.656
		c0-2.493,0.242-4.981,0.726-7.473c0-0.246,0.062-0.489,0.125-0.73c0.789-4.133,2.187-8.141,4.254-12.153
		c2.309-4.679,5.528-9.297,9.598-13.855c7.719-8.688,18.473-16.77,31.719-23.699c18.531-9.719,41.867-17.07,67.934-20.84
		C215.5,94.033,215.683,94.217,215.867,94.338z M234.094,92.271v-0.484v-1.52c1.641,0.485,3.281,0.852,5.043,1.153h0.062
		c1.457,0.367,2.976,0.609,4.496,0.789c0.183,0.062,0.426,0.062,0.609,0.062c3.703,0.547,7.657,0.789,11.727,0.789
		c4.191,0,8.203-0.301,12.031-0.851h0.242c1.457-0.242,2.914-0.484,4.374-0.726c0,0,0,0,0.059,0
		c2.308-0.485,4.558-1.035,6.687-1.641v2.066v0.301v8.512c-3.039,1.394-6.504,2.488-10.332,3.218
		c-3.828,0.789-7.961,1.215-12.336,1.215c-4.313,0-8.508-0.426-12.332-1.215c-3.832-0.73-7.293-1.824-10.332-3.218V92.271z
		 M290.301,70.518c0,1.398-0.305,2.734-0.91,4.07c-0.973,2.007-2.614,3.89-4.801,5.531c-1.215,1.031-2.676,1.945-4.316,2.734
		c-0.485,0.304-0.969,0.546-1.52,0.789c-0.426,0.183-0.847,0.305-1.274,0.426c-2.918,0.91-6.199,1.582-9.664,2.066
		c-0.121,0.062-0.242,0.062-0.363,0.062c-3.586,0.543-7.414,0.79-11.422,0.79c-4.012,0-7.902-0.246-11.485-0.79h-0.183
		c-3.95-0.546-7.594-1.398-10.817-2.43c-0.121,0-0.179-0.062-0.305-0.125c-0.606-0.242-1.214-0.485-1.762-0.789h-0.058
		c-1.582-0.852-2.855-1.703-4.07-2.672c-2.187-1.703-3.828-3.586-4.742-5.653c-0.606-1.277-0.91-2.613-0.91-4.011
		c0-3.828,2.37-7.352,6.441-10.27c6.196-4.434,16.344-7.352,27.891-7.352c17.5,0,31.961,6.746,34.027,15.496
		C290.179,69.06,290.301,69.787,290.301,70.518z"></path>
</g>
</svg>
