<!--?xml version="1.0" encoding="utf-8"?-->
<!-- Generator: Adobe Illustrator 19.1.1, SVG Export Plug-In . SVG Version: 6.00 Build 0)  -->
<svg version="1.1" id="_x31_0" xmlns="http://www.w3.org/2000/svg" xmlns:xlink="http://www.w3.org/1999/xlink" x="0px" y="0px" viewBox="0 0 512 512" style="width: 256px; height: 256px; opacity: 1;" xml:space="preserve">
<style type="text/css">
	.st0{fill:#374149;}
</style>
<g>
	<path class="st0" d="M511.758,258.449H512l-86.53-76.64v-0.16h-0.238l-33.703-29.875V32.212v-0.367l0,0v-0.16h-62.835v39.042
		l-0.102,25.305l-72.59-64.312L86.773,181.649H86.53v0.16l-49.25,43.621L0,258.289h0.183l-0.179,0.16H86.53v221.03v0.676l0,0v0.16
		H425.47V258.449h49.472l36.953,0.121L511.758,258.449z M328.095,311.004h-60.133v-57.578h60.133V311.004z M328.095,334.929v57.659
		h-60.133v-57.659H328.095z M244.038,392.588h-60.133v-57.659h60.133v57.644V392.588z M244.038,311.004h-60.133v-57.578h60.133
		v57.562V311.004z" style="fill: rgb(75, 75, 75);"></path>
</g>
</svg>
