<!--?xml version="1.0" encoding="utf-8"?-->
<!-- Generator: Adobe Illustrator 18.1.1, SVG Export Plug-In . SVG Version: 6.00 Build 0)  -->

<svg version="1.1" id="_x31_0" xmlns="http://www.w3.org/2000/svg" xmlns:xlink="http://www.w3.org/1999/xlink" x="0px" y="0px" viewBox="0 0 512 512" style="width: 256px; height: 256px; opacity: 1;" xml:space="preserve">
<style type="text/css">
	.st0{fill:#374149;}
</style>
<g>
	<path class="st0" d="M237.256,196.785v0.161h34.57V53.617c0-10.511,8.562-19.062,19.09-19.062c0.625,0,1.258,0.035,1.89,0.09
		c9.52,0.922,17.055,9.644,17.149,19.859v5.687v0.016l0,0v0.16h33.996l0.414,0.004v-0.004h0.161l-0.055-5.977
		c-0.277-28.297-21.109-51.574-48.465-54.148C294.279,0.082,292.564,0,290.869,0c-29.562,0-53.613,24.054-53.613,53.617v142.731
		l-0.004,0.437H237.256z" style="fill: rgb(75, 75, 75);"></path>
	<path class="st0" d="M344.526,86.45V69.246h-34.309h-0.106l0,0h-0.156V86.45c0,4.457,3.609,8.066,8.062,8.066h18.445
		C340.916,94.516,344.526,90.906,344.526,86.45z" style="fill: rgb(75, 75, 75);"></path>
	<path class="st0" d="M190.63,196.946l3.711-35.618c0.656-7.371-5.148-13.718-12.55-13.718h-20.805
		c-7.398,0-13.203,6.347-12.547,13.718l3.711,35.618H190.63z" style="fill: rgb(75, 75, 75);"></path>
	<path class="st0" d="M317.662,161.328l3.706,35.618h38.481l3.711-35.618c0.656-7.371-5.149-13.718-12.547-13.718h-20.805
		C322.806,147.61,317.002,153.957,317.662,161.328z" style="fill: rgb(75, 75, 75);"></path>
	<polygon class="st0" points="27.412,228.699 27.412,293.297 27.412,293.496 27.412,293.496 27.412,293.656 484.588,293.656 
		484.588,228.699 	" style="fill: rgb(75, 75, 75);"></polygon>
	<path class="st0" d="M41.798,319.114v142.094c0,10.141,8.219,18.359,18.36,18.359h4.718V512H92.81v-32.434h325.543h0.836V512
		h27.934v-32.434h4.722c10.137,0,18.359-8.218,18.359-18.359V319.114H41.798z M79.31,428.992v-54.914
		c0-2.786,3.676-3.738,5.019-1.294c7.633,13.852,17.418,27.508,29.234,40.278c8.387,9.07,17.298,17.129,26.481,24.149
		c2.035,1.554,0.902,4.801-1.66,4.801H92.33C85.138,442.012,79.31,436.183,79.31,428.992z" style="fill: rgb(75, 75, 75);"></path>
</g>
</svg>
