<!--?xml version="1.0" encoding="utf-8"?-->
<!-- Generator: Adobe Illustrator 18.1.1, SVG Export Plug-In . SVG Version: 6.00 Build 0)  -->

<svg version="1.1" id="_x31_0" xmlns="http://www.w3.org/2000/svg" xmlns:xlink="http://www.w3.org/1999/xlink" x="0px" y="0px" viewBox="0 0 512 512" style="width: 256px; height: 256px; opacity: 1;" xml:space="preserve">
<style type="text/css">
	.st0{fill:#374149;}
</style>
<g>
	<path class="st0" d="M426.38,311.973c-12.656-59.286-28.066-92.66-53.184-115.203c-28.582-25.653-85.234-49.906-116.57-49.906
		H147.802h-9.598l-7.418,6.086c-4.622,3.789-45.321,39.816-51.391,136.43c-3.238,51.535-1.39,109.734-0.171,148.242
		c0.316,9.93,0.59,18.508,0.738,25.618C80.525,490.125,102.872,512,129.778,512h254.199c27.125,0,49.477-22.062,49.824-49.183
		c0.047-3.782,0.125-7.954,0.203-12.446C434.677,412.637,435.696,355.61,426.38,311.973z M406.974,462.473
		c-0.16,12.586-10.406,22.699-22.996,22.699H129.778c-12.512,0-22.73-9.989-22.992-22.496
		c-0.754-35.856-4.574-108.594-0.614-171.618c5.512-87.742,41.629-117.363,41.629-117.363s107.422,0,108.825,0
		c23.87,0,74.335,21.222,98.648,43.043c17.676,15.859,31.95,40.332,44.867,100.836C409.915,363.348,407.411,428.469,406.974,462.473
		z"></path>
	<path class="st0" d="M180.044,49.598v0.16h20.547v-7.074c0-10.914-8.539-19.758-19.29-20.418c-0.371-0.027-0.722-0.121-1.098-0.129
		v0.015c-0.054,0-0.106-0.015-0.16-0.015v27.375V49.598L180.044,49.598z"></path>
	<path class="st0" d="M133.2,132.121h134.758c2.086,0,3.777-1.687,3.777-3.773v-13.875c0-2.086-1.691-3.774-3.777-3.774h-4.36
		c-5.48,0-9.93-4.446-9.93-9.93V56.918h-6.606V30.183C247.063,13.516,233.548,0,216.88,0h-32.598
		c-16.668,0-30.184,13.516-30.184,30.183v26.734h-6.609v43.852c0,5.484-4.446,9.93-9.93,9.93h-4.36
		c-2.082,0-3.774,1.687-3.774,3.774v13.875C129.426,130.434,131.118,132.121,133.2,132.121z M184.282,11.926h32.598
		c10.086,0,18.258,8.176,18.258,18.258v26.734h-69.113V30.183C166.025,20.102,174.196,11.926,184.282,11.926z"></path>
	<path class="st0" d="M133.622,306.222c-0.008,0.059-0.02,0.106-0.028,0.161h141.153c-8.258-60.395-45.996-72.887-71.961-72.887
		c-0.508,0-1.016,0-1.52,0.062c-0.507-0.062-1.015-0.062-1.55-0.062c-24.668,0-55.422,11.359-64.778,64.266
		c-0.492,2.734-0.973,5.496-1.344,8.461H133.622z"></path>
	<path class="st0" d="M276.27,324.57c0-0.359-0.031-0.719-0.031-1.047H132.224c0,0.328-0.031,0.688-0.031,1.047
		c-0.028,0.477-0.059,0.953-0.059,1.457c-1.191,43.02-1.042,75.782-0.683,96.379c0.238,14.043,11.683,25.25,25.695,25.25h94.172
		c14.039,0,25.457-11.206,25.726-25.25c0.359-20.598,0.477-53.359-0.715-96.379C276.329,325.523,276.298,325.047,276.27,324.57z"></path>
	<path class="st0" d="M327.056,233.121c-0.031-0.031-0.066-0.062-0.098-0.094c-8.282-7.438-21.598-3.058-24.207,7.766
		c-3.57,14.817-1.598,38.614,5.046,69.625c11.36,53.004,33.539,85.469,55.539,80.43c7.125-1.641,10.614-6.649,11.328-15.977
		c-1.133-15.594-2.98-30.649-5.812-43.973C354.841,265.375,340.501,245.191,327.056,233.121z"></path>
</g>
</svg>
