<!--?xml version="1.0" encoding="utf-8"?-->
<!-- Generator: Adobe Illustrator 18.1.1, SVG Export Plug-In . SVG Version: 6.00 Build 0)  -->

<svg version="1.1" id="_x31_0" xmlns="http://www.w3.org/2000/svg" xmlns:xlink="http://www.w3.org/1999/xlink" x="0px" y="0px" viewBox="0 0 512 512" style="enable-background:new 0 0 512 512;" xml:space="preserve">
<style type="text/css">
	.st0{fill:#374149;}
</style>
<g>
	<path class="st0" d="M370.336,414.641h-15.84l-11.121,51.394c-0.422,1.828-3.027,1.828-3.379,0l-11.054-51.394h-31.676
		l-11.054,51.394c-0.422,1.828-3.027,1.828-3.379,0l-11.05-51.394h-31.68l-11.05,51.394c-0.426,1.758-3.027,1.758-3.379-0.074
		l-11.05-51.32h-31.614l-11.05,51.394c-0.422,1.828-3.027,1.828-3.379,0l-11.05-51.394h-15.84l-22.598,91.234
		c-0.774,3.102,1.55,6.125,4.785,6.125h264.203c3.234,0,5.558-3.023,4.855-6.125L370.336,414.641z"></path>
	<path class="st0" d="M375.555,386.981c0-19.692-15.965-35.653-35.657-35.653h-64.965h-0.035l-0.003-185.961h-37.731l-0.05,185.914
		v0.046h-65.008c-19.007,0-34.398,14.914-35.453,33.657c-0.039,0.621-0.195,1.21-0.199,1.835h0.015
		c-0.004,0.055-0.019,0.106-0.019,0.161H375.555z"></path>
	<path class="st0" d="M274.895,131.813V18.867C274.895,8.418,266.429,0,255.977,0c-10.402-0.046-18.863,8.418-18.863,18.867
		l0.047,112.946H274.895z"></path>
</g>
</svg>
