<!--?xml version="1.0" encoding="utf-8"?-->
<!-- Generator: Adobe Illustrator 24.1.1, SVG Export Plug-In . SVG Version: 6.00 Build 0)  -->
<svg version="1.1" id="_x31_0" xmlns="http://www.w3.org/2000/svg" xmlns:xlink="http://www.w3.org/1999/xlink" x="0px" y="0px" viewBox="0 0 512 512" style="width: 256px; height: 256px; opacity: 1;" xml:space="preserve">
<style type="text/css">
	.st0{fill:#374149;}
</style>
<g>
	<path class="st0" d="M154.433,282.477l2.41,4.683l4.098,8.047l-0.148,3.656c-2.633,7.168-7.168,22.234-6.36,38.84
		c0,2.484,0.364,4.828,1.094,7.168c-0.73,2.34-1.094,4.754-1.094,7.238v21.066c0,2.488,0.364,4.902,1.094,7.242
		c-0.73,2.34-1.094,4.825-1.094,7.313v20.992c0,2.562,0.364,4.977,1.094,7.317c-0.73,2.34-1.094,4.828-1.094,7.312v20.993
		c0,2.488,0.364,4.973,1.094,7.316c-0.73,2.34-1.094,4.754-1.094,7.238v2.855c0,16.676,8.774,39.13,24.938,47.688l4.828,2.558
		h143.657l4.824-2.558c16.164-8.558,24.942-31.012,24.942-47.688v-2.855c0-2.484-0.367-4.973-1.094-7.238
		c0.726-2.343,1.094-4.754,1.094-7.316v-20.993c0-2.558-0.367-4.972-1.094-7.312c0.726-2.34,1.094-4.754,1.094-7.317V387.73
		c0-2.488-0.367-4.973-1.094-7.313c0.726-2.269,1.094-4.754,1.094-7.242V352.11c0-2.485-0.367-4.973-1.094-7.313
		c0.656-2.195,1.094-4.61,1.094-7.094c0.805-16.386-3.512-31.16-6.363-38.84l-0.149-3.656l4.098-8.047l0.95-1.828h1.293h0.012l0,0
		h0.16V141.606c0.07-2.778-0.293-5.485-1.172-7.973c-1.606-8.922-5.191-16.016-10.75-21.578c-1.171-1.168-6.73-7.019-33.058-36.206
		c-4.098-4.531-7.976-8.848-11.195-12.434c0.66-2.336,1.102-4.825,1.102-7.387V26.406c0-13.094-9.875-23.918-22.894-25.164
		l-0.512-0.07C271.386,0.367,263.706,0,256.027,0c-7.68,0-15.363,0.367-23.043,1.172l-0.801,0.07
		c-12.801,1.246-22.676,12.07-22.676,25.164v29.621c0,2.562,0.438,5.051,1.098,7.387c-17.996,19.972-40.668,45.058-44.25,48.64
		c-5.633,5.633-9.145,12.73-10.754,21.653c-0.878,2.484-1.246,5.121-1.168,7.828v119l-0.152,0.879l0.152,2.266V282.477z
		 M236.351,151.746l-44.473,45.054c-1.535,1.61-4.242,0.438-4.242-1.828v-45.055c0-1.39,1.098-2.562,2.489-2.562h44.473
		C236.789,147.355,237.961,150.133,236.351,151.746z M322.441,490.058c-8.488,0-66.414,0-66.414,0s-11.559,0-25.086,0h-41.332
		c-6.726-3.586-13.234-16.606-13.234-28.305v-2.855l0.145-0.73c0.293-1.023,1.246-1.754,2.34-1.754c1.39,0,2.488-1.098,2.488-2.489
		v-4.609c0-1.387-1.098-2.485-2.488-2.485c-1.094,0-2.047-0.734-2.34-1.683l-0.145-0.805v-20.993l0.145-0.804
		c0.293-1.024,1.246-1.68,2.34-1.68c1.39,0,2.488-1.102,2.488-2.488v-4.68c0-1.316-1.098-2.488-2.488-2.488
		c-1.094,0-2.047-0.657-2.34-1.684l-0.145-0.805V387.73l0.145-0.801c0.293-0.953,1.246-1.687,2.34-1.687
		c1.39,0,2.488-1.094,2.488-2.485v-4.609c0-1.387-1.098-2.485-2.488-2.485c-0.887,0-1.582-0.55-2.008-1.278
		c-0.137-0.222-0.274-0.434-0.379-0.722l-0.098-0.488V352.11l0.145-0.73c0.293-1.024,1.246-1.754,2.34-1.754
		c1.39,0,2.488-1.098,2.488-2.488v-4.606c0-1.39-1.098-2.488-2.488-2.488c-1.094,0-2.047-0.734-2.34-1.684l-0.145-0.805v-0.438
		c-0.73-12.359,2.703-24.21,4.68-29.988c20.043,0,41.473,0.074,41.473,0.074L230.132,323h51.786l7.61-15.797
		c0,0,21.355-0.074,41.398-0.074c2.046,5.703,5.484,17.481,4.754,29.988v0.438c0,1.391-1.098,2.489-2.488,2.489
		c-0.66,0-1.317,0.293-1.754,0.73c-0.441,0.442-0.734,1.098-0.734,1.758v4.606c0,1.39,1.102,2.488,2.489,2.488
		c0.66,0,1.316,0.293,1.754,0.73c0.442,0.438,0.734,1.098,0.734,1.754v21.066c0,1.39-1.098,2.488-2.488,2.488
		c-0.66,0-1.317,0.293-1.754,0.73c-0.441,0.438-0.734,1.023-0.734,1.754v4.609c0,1.391,1.102,2.485,2.489,2.485
		c0.66,0,1.316,0.293,1.754,0.734c0.442,0.438,0.734,1.098,0.734,1.754v20.992c0,1.391-1.098,2.489-2.488,2.489
		c-0.66,0-1.317,0.293-1.754,0.73c-0.441,0.511-0.734,1.098-0.734,1.758v4.68c0,1.386,1.102,2.488,2.489,2.488
		c0.66,0,1.316,0.293,1.754,0.73c0.442,0.438,0.734,1.023,0.734,1.754v20.993c0,1.39-1.098,2.488-2.488,2.488
		c-0.66,0-1.317,0.293-1.754,0.73c-0.441,0.438-0.734,1.098-0.734,1.754v4.609c0,1.391,1.102,2.489,2.489,2.489
		c0.66,0,1.316,0.289,1.754,0.73c0.442,0.511,0.734,1.098,0.734,1.754v2.855C335.679,473.453,329.167,486.473,322.441,490.058z
		 M335.679,277.215l-4.977,9.801l-1.386,2.633c-20.848-0.294-46.082-0.442-73.289-0.442c-27.211,0-52.446,0.148-73.294,0.442
		l-6.359-12.434c0,0,0-11.149,0-16.414c22.454-0.438,50.469-0.66,79.653-0.66c29.109,0,57.199,0.222,79.652,0.66
		C335.679,266.066,335.679,277.215,335.679,277.215z M323.347,120.469h-80.832l-53.848-0.11
		c14.934-16.258,47.391-52.48,47.391-52.48v-1.535c7.094-0.074,14.554-0.149,22.453-0.149c6.145,0,11.996,0,17.481,0.074v1.61
		c0,0,9.363,10.457,20.336,22.675c8.011,8.852,16.675,18.43,23.382,25.778C320.976,117.766,322.258,119.215,323.347,120.469z
		 M235.031,59.469V59.39h-0.141c-1.906,0-3.442-1.461-3.442-3.363V26.406c0-1.758,1.32-3.219,3.07-3.363l0.734-0.074
		c6.875-0.66,13.824-1.023,20.774-1.023c6.949,0,13.894,0.363,20.843,1.023l0.657,0.074c1.758,0.144,3.078,1.606,3.078,3.363v29.621
		c0,1.902-1.539,3.363-3.441,3.363h-0.294l-0.878-0.07v0.07c-6.653-0.582-13.309-0.801-19.965-0.801
		c-2.446,0-4.875,0.234-7.305,0.305c-2.723,0.074-5.496,0.191-8.254,0.344C238.656,59.351,236.847,59.317,235.031,59.469z" style="fill: rgb(75, 75, 75);"></path>
	<path class="st0" d="M316.366,411.211H195.683c-1.172,0-2.121,1.172-2.121,2.488v4.68c0,1.316,0.949,2.488,2.121,2.488h120.683
		c1.172,0,2.122-1.172,2.122-2.488v-4.68C318.488,412.383,317.538,411.211,316.366,411.211z" style="fill: rgb(75, 75, 75);"></path>
	<path class="st0" d="M316.366,375.664H195.683c-1.172,0-2.121,1.098-2.121,2.485v4.609c0,1.391,0.949,2.485,2.121,2.485h120.683
		c1.172,0,2.122-1.094,2.122-2.485v-4.609C318.488,376.762,317.538,375.664,316.366,375.664z" style="fill: rgb(75, 75, 75);"></path>
	<path class="st0" d="M316.366,340.043H195.683c-1.172,0-2.121,1.098-2.121,2.488v4.606c0,1.39,0.949,2.488,2.121,2.488h120.683
		c1.172,0,2.122-1.098,2.122-2.488v-4.606C318.488,341.141,317.538,340.043,316.366,340.043z" style="fill: rgb(75, 75, 75);"></path>
	<path class="st0" d="M316.366,446.832H195.683c-1.172,0-2.121,1.098-2.121,2.485v4.609c0,1.391,0.949,2.489,2.121,2.489h120.683
		c1.172,0,2.122-1.098,2.122-2.489v-4.609C318.488,447.93,317.538,446.832,316.366,446.832z" style="fill: rgb(75, 75, 75);"></path>
</g>
</svg>
