<!--?xml version="1.0" encoding="utf-8"?-->
<!-- Generator: Adobe Illustrator 18.1.1, SVG Export Plug-In . SVG Version: 6.00 Build 0)  -->

<svg version="1.1" id="_x31_0" xmlns="http://www.w3.org/2000/svg" xmlns:xlink="http://www.w3.org/1999/xlink" x="0px" y="0px" viewBox="0 0 512 512" style="width: 256px; height: 256px; opacity: 1;" xml:space="preserve">
<style type="text/css">
	.st0{fill:#374149;}
</style>
<g>
	<path class="st0" d="M135.383,191.041l19.942,106.676h201.351l19.894-106.676c4.524-26.191,21.887-47.402,45.25-58.004V98.053
		c0-45.031-36.504-81.535-81.539-81.535H171.715c-45.035,0-81.535,36.504-81.535,81.535v34.984
		C113.543,143.638,130.906,164.85,135.383,191.041z M199.895,50.908h21.418c12.801,0.254,14.618,17.91,2.325,21.25
		c-30.715,8.324-56.442,27.542-71.906,52.683c-0.887,1.434-2.45,2.321-4.223,2.321c-2.703,0-4.902-2.11-4.902-4.688v-16.898
		c0-7.523,1.606-14.703,4.481-21.25c2.914-6.508,7.098-12.422,12.293-17.406c5.195-4.942,11.363-8.957,18.25-11.703
		C184.473,52.428,191.954,50.908,199.895,50.908z" style="fill: rgb(75, 75, 75);"></path>
	<path class="st0" d="M467.91,152.088c-3.843-0.758-7.73-1.137-11.574-1.137c-12.972,0-24.968,4.222-34.515,11.406
		c-10.519,7.942-18,19.558-20.324,33.164l-23.782,127.543h-243.43l-23.828-127.543c-2.324-13.606-9.758-25.222-20.278-33.164
		c-9.55-7.184-21.546-11.406-34.515-11.406c-3.887,0-7.778,0.379-11.578,1.137c-28.434,5.707-47.57,31.73-43.554,59.191
		c2.871,19.726,16.855,36.078,36.542,42.711c8.829,3,15.164,10.011,16.559,18.293l20.617,137.25
		c2.41,14.153,15.043,24.418,30.082,24.418h303.293c15.039,0,27.672-10.266,30.078-24.418l20.618-137.206
		c1.438-8.363,7.774-15.379,16.602-18.336c19.687-6.633,33.672-22.985,36.546-42.711
		C515.481,183.818,496.344,157.795,467.91,152.088z" style="fill: rgb(75, 75, 75);"></path>
	<path class="st0" d="M160.926,454.858l0.039-0.16h-36.086l-8.359-0.039l0.008,0.039h-0.164l8.84,36.793
		c0.902,2.382,3.031,3.992,5.148,3.992h16.625c2.122,0,4.246-1.61,5.153-3.992l7.121-29.649l1.715-6.984H160.926z" style="fill: rgb(75, 75, 75);"></path>
	<path class="st0" d="M359.547,454.698l-8.359-0.039l0.008,0.039h-0.164l8.836,36.793c0.906,2.382,3.031,3.992,5.152,3.992h16.625
		c2.122,0,4.246-1.61,5.153-3.992l7.16-29.809l1.676-6.824h-0.039l0.039-0.16H359.547z" style="fill: rgb(75, 75, 75);"></path>
</g>
</svg>
