<!--?xml version="1.0" encoding="utf-8"?-->
<!-- Generator: Adobe Illustrator 18.1.1, SVG Export Plug-In . SVG Version: 6.00 Build 0)  -->

<svg version="1.1" id="_x32_" xmlns="http://www.w3.org/2000/svg" xmlns:xlink="http://www.w3.org/1999/xlink" x="0px" y="0px" viewBox="0 0 512 512" style="width: 256px; height: 256px; opacity: 1;" xml:space="preserve">
<style type="text/css">
	.st0{fill:#4B4B4B;}
</style>
<g>
	<path class="st0" d="M512,204.8c0-12.896-10.46-23.355-23.363-23.355h-47.723v98.895H71.078v-98.895H23.363
		C10.459,181.445,0,191.904,0,204.8v146.618h34.257v37.864h33.988v-37.864h375.502v37.864h34.004v-37.864H512V204.8z" style="fill: rgb(75, 75, 75);"></path>
	<path class="st0" d="M245.703,140.241c0-9.676-7.848-17.524-17.524-17.524H126.728c-19.352,0-35.041,15.688-35.041,35.048v101.973
		h154.015V140.241z" style="fill: rgb(75, 75, 75);"></path>
	<path class="st0" d="M420.312,157.766c0-19.36-15.69-35.048-35.041-35.048h-101.45c-9.676,0-17.516,7.848-17.516,17.524v119.497
		h154.008V157.766z" style="fill: rgb(75, 75, 75);"></path>
</g>
</svg>
