<!--?xml version="1.0" encoding="utf-8"?-->
<!-- Generator: Adobe Illustrator 18.1.1, SVG Export Plug-In . SVG Version: 6.00 Build 0)  -->

<svg version="1.1" id="_x31_0" xmlns="http://www.w3.org/2000/svg" xmlns:xlink="http://www.w3.org/1999/xlink" x="0px" y="0px" viewBox="0 0 512 512" style="width: 256px; height: 256px; opacity: 1;" xml:space="preserve">
<style type="text/css">
	.st0{fill:#374149;}
</style>
<g>
	<polygon class="st0" points="161.639,0.156 161.639,0 129.756,3.586 129.756,50.617 161.639,54.203 161.639,5.649 161.658,0.156 	
		" style="fill: rgb(75, 75, 75);"></polygon>
	<path class="st0" d="M170.502,159.226c7.374,6.18,10.762,7.774,10.762,7.774c6.832-9,32.438-50.32,44.504-93.672
		c1.007-3.586,1.953-7.187,2.77-10.805c16.5,8.668,27.758,25.958,27.758,45.887l0,0h70.945l0,0
		c0-25.094,20.344-45.438,45.438-45.438h2.59c3.855,0,6.976-3.122,6.976-6.977c0-30.926-25.07-55.996-56-55.996H176.182v56.594
		h24.902l3.266,0.023C197.607,108.422,180.01,143.68,170.502,159.226z" style="fill: rgb(75, 75, 75);"></path>
	<path class="st0" d="M326.803,210.305l-1.582-3.184h-65.438l-1.426,0.926c-18.875,12.27-18.649,18.168-18.574,20.105
		c0.102,2.63,1.59,4.973,3.977,6.278c4.086,2.226,8.469,8.867,7.367,20.23c-1.11,11.379-13.734,28.004-28.359,47.262
		c-7.41,9.758-15.078,19.852-22.348,30.676c-23.652,35.203-29.902,97.566-29.902,125.621c0,31.696,26.707,53.782,50.68,53.782
		h110.023c26.363,0,42.516-16.734,48.016-49.738c2.5-14.988,7.042-56.214-4.68-115.183
		C361.221,279.981,327.146,210.992,326.803,210.305z" style="fill: rgb(75, 75, 75);"></path>
	<path class="st0" d="M264.963,130.832c-6.746,0-12.215,5.469-12.215,12.215v41.351H333.1v-41.351
		c0-6.746-5.473-12.215-12.219-12.215H264.963z" style="fill: rgb(75, 75, 75);"></path>
</g>
</svg>
