<!--?xml version="1.0" encoding="utf-8"?-->
<!-- Generator: Adobe Illustrator 18.1.1, SVG Export Plug-In . SVG Version: 6.00 Build 0)  -->

<svg version="1.1" id="_x31_0" xmlns="http://www.w3.org/2000/svg" xmlns:xlink="http://www.w3.org/1999/xlink" x="0px" y="0px" viewBox="0 0 512 512" style="width: 256px; height: 256px; opacity: 1;" xml:space="preserve">
<style type="text/css">
	.st0{fill:#374149;}
</style>
<g>
	<path class="st0" d="M96.23,231.121h14.183h48.641h33.578l-12.36-27.32l-1.37-3.152L158.483,154L107.671,37.629
		C100.874,22.098,85.55,12.07,68.616,12.07c-5.894,0-11.637,1.203-17.066,3.578l-2.582,1.144
		C38.69,21.254,30.659,29.586,26.495,40.195c-4.168,10.618-3.942,22.211,0.629,32.649l63.43,145.281L96.23,231.121z
		 M158.983,209.457h-48.57L46.972,64.152c-2.246-5.129-2.356-10.828-0.309-16.038c2.046-5.211,5.996-9.305,11.074-11.508L60.23,35.5
		c2.672-1.168,5.492-1.762,8.386-1.762c8.324,0,15.859,4.93,19.195,12.558l50.821,116.39l12.086,27.606L158.983,209.457z"></path>
	<path class="st0" d="M472.124,253.867h-12.539H317.319H123.898c-23.715,0-42.942,19.226-42.942,42.942v164.836
		c0,27.808,22.543,50.351,50.355,50.351L265.694,512h4.93c11.176,0,20.738-8.031,22.672-19.039l0.851-4.855l6.586-37.473
		c0.562-3.324,0.969-6.496,1.374-9.68c0.164-1.289,0.325-2.582,0.5-3.874c0.149-1.082,1.133-2.184,2.524-2.184h24.117
		c34.176,0,73.226-16.129,104.457-43.144c35.317-30.551,54.77-69.258,54.77-108.993v-12.539
		C488.475,261.191,481.155,253.867,472.124,253.867z M404.323,378.207c-2.645,1.93-5.355,3.73-8.082,5.484
		c-1.105,0.703-2.202,1.418-3.32,2.094c-2.226,1.356-4.484,2.622-6.75,3.856c-1.746,0.949-3.497,1.863-5.254,2.734
		c-1.942,0.965-3.886,1.886-5.844,2.754c-1.324,0.594-2.648,1.184-3.976,1.73c-2.801,1.149-5.606,2.203-8.402,3.145
		c-0.586,0.199-1.172,0.414-1.754,0.602c-10.886,3.492-21.66,5.398-31.691,5.398h-24.117c-15.891,0-29.055,11.836-31.145,27.156
		c-0.57,4.18-1.012,8.359-1.711,12.477l-6.582,37.473H131.311c-11.855,0-21.465-9.61-21.465-21.465V296.809
		c0-7.758,6.293-14.051,14.051-14.051h193.422h142.266c0,37.993-23.691,71.95-54.07,94.559
		C405.116,377.614,404.726,377.918,404.323,378.207z"></path>
	<path class="st0" d="M198.745,77.461c4.543-0.598,8.898-0.898,13.066-0.898c29.078,0,49.176,14.582,61.055,44.278l1.293,0.758
		l0.758-1.293c-4.836-36.246,9.422-60.535,43.328-74.11l0.754-1.293l-1.29-0.754c-4.546,0.598-8.91,0.898-13.082,0.898
		c-29.118,0-49.219-14.622-61.055-44.332L242.346,0l-0.793,1.355c4.77,36.207-9.438,60.485-43.344,74.059l-0.671,1.148l-0.004,0.004
		l0,0l-0.082,0.141L198.745,77.461z M275.757,56.258c-5.102,5.942-9.062,12.578-11.973,19.805c-0.332,0.774-0.699,1.52-1.008,2.309
		c-5.953-5.114-12.598-9.09-19.824-12.016c-0.762-0.328-1.504-0.695-2.278-1c5.653-6.586,9.977-13.984,12.942-22.144
		c5.957,5.125,12.614,9.109,19.852,12.039C274.234,55.582,274.979,55.95,275.757,56.258z"></path>
	<path class="st0" d="M349.601,120.137c25.594,22.332,30.648,48.035,15.312,78.398l0.266,1.363l1.363-0.266
		c13.93-16.016,29.184-23.981,46.055-23.981c10.16,0,20.906,2.887,32.301,8.645l1.367-0.27l-0.266-1.363
		c-25.637-22.359-30.664-48.106-15.286-78.438l-0.254-1.297l-1.434,0.278c-13.938,15.976-29.184,23.938-46.047,23.938
		c-10.148,0-20.886-2.883-32.281-8.641l-1.207,0.238l0,0l0,0l-0.156,0.031L349.601,120.137z M389.468,163.695
		c-0.234-6.359-1.477-12.535-3.465-18.554c-0.203-0.68-0.309-1.367-0.535-2.043c7.109-0.258,13.996-1.602,20.64-4.031
		c0.231,6.367,1.473,12.55,3.465,18.578c0.207,0.683,0.313,1.374,0.539,2.054c-6.402,0.23-12.59,1.473-18.617,3.465
		C390.823,163.367,390.139,163.473,389.468,163.695z"></path>
	<path class="st0" d="M197.995,307.879h-50.176c-5.344,0-9.68,4.332-9.68,9.679v44.27c0,4.855,6.305,6.668,8.883,2.551
		c6.258-9.969,14.054-19.274,23.359-27.539c9.18-8.172,19.18-14.774,29.657-19.797C204.702,314.809,203.167,307.879,197.995,307.879
		z"></path>
</g>
</svg>
