<!--?xml version="1.0" encoding="utf-8"?-->
<!-- Generator: Adobe Illustrator 18.1.1, SVG Export Plug-In . SVG Version: 6.00 Build 0)  -->

<svg version="1.1" id="_x31_0" xmlns="http://www.w3.org/2000/svg" xmlns:xlink="http://www.w3.org/1999/xlink" x="0px" y="0px" viewBox="0 0 512 512" style="width: 256px; height: 256px; opacity: 1;" xml:space="preserve">
<style type="text/css">
	.st0{fill:#374149;}
</style>
<g>
	<path class="st0" d="M256,156.824c-74.321,0-134.758,60.438-134.758,134.758c0,74.386,60.437,134.828,134.758,134.828
		c74.39,0,134.824-60.442,134.824-134.828C390.824,217.262,330.39,156.824,256,156.824z M361.914,311.977
		c-7.242,51.984-51.851,92.027-105.914,92.027c-53.996,0-98.738-40.114-105.848-92.164c5.902-3.754,10.398-9.457,12.61-16.23
		c0.539-1.547,2.55-1.547,3.019,0c4.024,12.207,15.496,20.992,29.114,20.992c13.614,0,25.019-8.785,29.043-20.926
		c0.535-1.614,2.546-1.614,3.019,0c3.957,12.141,15.426,20.926,28.977,20.926c13.617,0,25.086-8.785,29.109-20.992
		c0.539-1.547,2.551-1.547,3.02,0c3.957,12.207,15.496,20.992,28.977,20.992c13.617,0,25.086-8.785,29.113-20.992
		c0.535-1.547,2.551-1.547,3.02,0C351.382,302.383,355.945,308.149,361.914,311.977z"></path>
	<path class="st0" d="M437.71,0H74.355C38.602,0,9.492,29.11,9.492,64.797v370.062c0,42.527,34.61,77.141,77.141,77.141h338.738
		c42.594,0,77.137-34.614,77.137-77.141V64.797C502.508,29.11,473.465,0,437.71,0z M256,453.238
		c-89.078,0-161.59-72.508-161.59-161.656c0-89.078,72.512-161.59,161.59-161.59c89.144,0,161.656,72.512,161.656,161.59
		C417.656,380.73,345.144,453.238,256,453.238z M443.816,100.211H68.183V73.379h375.633V100.211z"></path>
</g>
</svg>
