<!--?xml version="1.0" encoding="utf-8"?-->
<!-- Generator: Adobe Illustrator 24.0.1, SVG Export Plug-In . SVG Version: 6.00 Build 0)  -->
<svg version="1.1" id="_x31_0" xmlns="http://www.w3.org/2000/svg" xmlns:xlink="http://www.w3.org/1999/xlink" x="0px" y="0px" viewBox="0 0 512 512" style="width: 256px; height: 256px; opacity: 1;" xml:space="preserve">
<style type="text/css">
	.st0{fill:#374149;}
</style>
<g>
	<path class="st0" d="M294.168,413.5l14.309-131.793l-29.574-64.168L267.531,3.652C267.422,1.606,265.731,0,263.68,0h-15.371
		c-2.051,0-3.742,1.606-3.848,3.652L233.09,217.539l-29.578,64.168L217.824,413.5H294.168z M252.587,221.394v-28.211h6.82v28.211
		H252.587z M263.571,236.406c2.934,0,5.61,1.703,6.836,4.363l8.886,19.293c1.16,2.488,0.856,5.422-0.785,7.625l-37.387,50.418
		c-0.441,0.598-0.957,1.058-1.492,1.477c-0.11,0.086-0.203,0.191-0.316,0.269c-0.566,0.395-1.172,0.688-1.797,0.899
		c-0.176,0.062-0.363,0.086-0.547,0.133c-4.114,1.042-8.84-1.508-9.371-6.446l-2.984-27.496c-0.157-1.363,0.066-2.726,0.644-3.973
		l19.446-42.199c1.23-2.66,3.906-4.363,6.84-4.363H263.571z"></path>
	<path class="st0" d="M355.801,491.289l-5.371-29.347c-1.598-8.18-8.809-14.118-17.144-14.118h-38.274l-13.832-0.058l6.562-16.078
		l2.613-6.234h-0.066l0.066-0.16h-50.206l-18.367-0.058l0.023,0.058h-0.172l6.676,16.348l2.461,6.183h-52.066
		c-8.336,0-15.55,5.977-17.172,14.25l-5.32,29.098c-1.008,5.145,0.328,10.414,3.656,14.461c3.332,4.047,8.25,6.367,13.492,6.367
		h165.274c5.238,0,10.156-2.32,13.488-6.367C355.446,501.594,356.786,496.367,355.801,491.289z M199.691,493.238l-24.781-0.027
		l1.274-6.95h159.625l1.098,6.008l0.152,0.969H199.691z M335.156,482.851H199.77l-22.957-0.027l2.969-16.238h58.71l2.508,6.149
		h29.988l2.508-6.149h58.711l2.554,13.973L335.156,482.851z"></path>
</g>
</svg>
